<svg width="140" height="40" viewBox="0 0 140 40" fill="none" xmlns="http://www.w3.org/2000/svg">
<path d="M20.4455 35.3873C19.8143 34.9677 19.2549 34.4493 18.7888 33.852C18.2761 33.2355 17.8011 32.5886 17.3663 31.9149C16.346 30.4214 15.5458 28.7892 14.9904 27.0682C14.3231 25.0691 14 23.153 14 21.2789C14 19.1859 14.4532 17.3587 15.3395 15.8235C15.9965 14.6235 16.9626 13.6207 18.1376 12.9188C19.2763 12.2121 20.5848 11.8254 21.925 11.7993C22.3942 11.7993 22.8994 11.8673 23.4356 11.9973C23.8208 12.1062 24.29 12.2781 24.8632 12.492C25.5925 12.7729 25.9936 12.9448 26.1297 12.9868C26.5568 13.1427 26.916 13.2107 27.1981 13.2107C27.4122 13.2107 27.7143 13.1427 28.0574 13.0388C28.2505 12.9708 28.6146 12.8509 29.1358 12.628C29.652 12.44 30.0582 12.2791 30.3813 12.1592C30.8765 12.0132 31.3557 11.8783 31.7828 11.8103C32.2892 11.7306 32.8032 11.7094 33.3144 11.7474C34.2004 11.8052 35.073 11.9928 35.9044 12.3041C37.2639 12.8509 38.3634 13.7045 39.1817 14.9179C38.8358 15.1309 38.5112 15.3766 38.2123 15.6515C37.5617 16.2278 37.0075 16.9044 36.5707 17.6556C35.9998 18.6822 35.7038 19.8386 35.7113 21.013C35.7324 22.4553 36.1025 23.7258 36.8318 24.8242C37.3679 25.6384 38.0647 26.3346 38.8796 26.8703C39.2967 27.1511 39.6559 27.3441 40 27.474C39.8389 27.9738 39.6669 28.4575 39.4638 28.9373C39.0032 30.0132 38.445 31.0447 37.7962 32.0189C37.2179 32.8575 36.7648 33.4822 36.4206 33.898C35.8844 34.5327 35.3682 35.0175 34.847 35.3553C34.2738 35.7351 33.5965 35.938 32.9083 35.938C32.4421 35.9559 31.9761 35.8996 31.5277 35.7711C31.1426 35.6412 30.7614 35.5002 30.3863 35.3393C29.9963 35.1603 29.5941 35.009 29.1828 34.8865C28.1662 34.6256 27.1002 34.6239 26.0826 34.8815C25.6655 35.0015 25.2643 35.1414 24.8682 35.3133C24.311 35.5472 23.9408 35.7041 23.7267 35.7711C23.2996 35.896 22.8564 35.974 22.4082 36C21.715 36 21.0687 35.8021 20.4285 35.4013L20.4455 35.3873ZM29.589 10.7838C28.6826 11.2366 27.8173 11.4295 26.958 11.3665C26.8229 10.502 26.958 9.61737 27.3171 8.64882C27.6229 7.82827 28.0746 7.06975 28.6506 6.40987C29.2589 5.71522 29.9969 5.14584 30.8235 4.73366C31.7038 4.28087 32.5431 4.03598 33.3454 4C33.4495 4.90558 33.3454 5.79616 33.0123 6.75871C32.704 7.60959 32.2531 8.40187 31.6788 9.10161C31.0926 9.79721 30.3733 10.3688 29.563 10.7828L29.589 10.7838Z" fill="white"/>
<rect x="0.5" y="0.5" width="139" height="39" stroke="white"/>
<path d="M51.583 26.6826H47.7275L46.9209 29H45.123L48.8828 19.0469H50.4346L54.2012 29H52.3965L51.583 26.6826ZM48.2129 25.2881H51.0977L49.6553 21.1592L48.2129 25.2881ZM61.3242 25.377C61.3242 26.5208 61.0645 27.4346 60.5449 28.1182C60.0254 28.7972 59.3281 29.1367 58.4531 29.1367C57.6419 29.1367 56.9925 28.8701 56.5049 28.3369V31.8438H54.8438V21.6035H56.375L56.4434 22.3555C56.931 21.763 57.5941 21.4668 58.4326 21.4668C59.335 21.4668 60.0413 21.804 60.5518 22.4785C61.0667 23.1484 61.3242 24.0804 61.3242 25.2744V25.377ZM59.6699 25.2334C59.6699 24.4951 59.5218 23.9095 59.2256 23.4766C58.9339 23.0436 58.5146 22.8271 57.9678 22.8271C57.2887 22.8271 56.8011 23.1074 56.5049 23.668V26.9492C56.8057 27.5234 57.2979 27.8105 57.9814 27.8105C58.5101 27.8105 58.9225 27.5986 59.2188 27.1748C59.5195 26.7464 59.6699 26.0993 59.6699 25.2334ZM69.2129 25.377C69.2129 26.5208 68.9531 27.4346 68.4336 28.1182C67.9141 28.7972 67.2168 29.1367 66.3418 29.1367C65.5306 29.1367 64.8812 28.8701 64.3936 28.3369V31.8438H62.7324V21.6035H64.2637L64.332 22.3555C64.8197 21.763 65.4827 21.4668 66.3213 21.4668C67.2236 21.4668 67.93 21.804 68.4404 22.4785C68.9554 23.1484 69.2129 24.0804 69.2129 25.2744V25.377ZM67.5586 25.2334C67.5586 24.4951 67.4105 23.9095 67.1143 23.4766C66.8226 23.0436 66.4033 22.8271 65.8564 22.8271C65.1774 22.8271 64.6898 23.1074 64.3936 23.668V26.9492C64.6943 27.5234 65.1865 27.8105 65.8701 27.8105C66.3988 27.8105 66.8112 27.5986 67.1074 27.1748C67.4082 26.7464 67.5586 26.0993 67.5586 25.2334ZM79.4736 26.4365C79.4736 25.999 79.3187 25.6618 79.0088 25.4248C78.7035 25.1878 78.1497 24.9486 77.3477 24.707C76.5456 24.4655 75.9076 24.1966 75.4336 23.9004C74.5267 23.3307 74.0732 22.5879 74.0732 21.6719C74.0732 20.8698 74.3991 20.209 75.0508 19.6895C75.707 19.1699 76.557 18.9102 77.6006 18.9102C78.2933 18.9102 78.9108 19.0378 79.4531 19.293C79.9954 19.5482 80.4215 19.9128 80.7314 20.3867C81.0413 20.8561 81.1963 21.3779 81.1963 21.9521H79.4736C79.4736 21.4326 79.3096 21.027 78.9814 20.7354C78.6579 20.4391 78.193 20.291 77.5869 20.291C77.0218 20.291 76.582 20.4118 76.2676 20.6533C75.9577 20.8949 75.8027 21.2321 75.8027 21.665C75.8027 22.0296 75.9714 22.335 76.3086 22.5811C76.6458 22.8226 77.2018 23.0596 77.9766 23.292C78.7513 23.5199 79.3734 23.7819 79.8428 24.0781C80.3122 24.3698 80.6562 24.707 80.875 25.0898C81.0938 25.4681 81.2031 25.9124 81.2031 26.4229C81.2031 27.2523 80.8841 27.9131 80.2461 28.4053C79.6126 28.8929 78.7513 29.1367 77.6621 29.1367C76.9421 29.1367 76.279 29.0046 75.6729 28.7402C75.0713 28.4714 74.6019 28.1022 74.2646 27.6328C73.932 27.1634 73.7656 26.6165 73.7656 25.9922H75.4951C75.4951 26.5573 75.682 26.9948 76.0557 27.3047C76.4294 27.6146 76.9648 27.7695 77.6621 27.7695C78.2637 27.7695 78.7148 27.6488 79.0156 27.4072C79.321 27.1611 79.4736 26.8376 79.4736 26.4365ZM84.6416 19.8057V21.6035H85.9473V22.834H84.6416V26.9629C84.6416 27.2454 84.6963 27.4505 84.8057 27.5781C84.9196 27.7012 85.1201 27.7627 85.4072 27.7627C85.5986 27.7627 85.7923 27.7399 85.9883 27.6943V28.9795C85.61 29.0843 85.2454 29.1367 84.8945 29.1367C83.6185 29.1367 82.9805 28.4326 82.9805 27.0244V22.834H81.7637V21.6035H82.9805V19.8057H84.6416ZM86.7061 25.2334C86.7061 24.5088 86.8496 23.8571 87.1367 23.2783C87.4238 22.695 87.8271 22.2484 88.3467 21.9385C88.8662 21.624 89.4632 21.4668 90.1377 21.4668C91.1357 21.4668 91.9447 21.7881 92.5645 22.4307C93.1888 23.0732 93.526 23.9255 93.5762 24.9873L93.583 25.377C93.583 26.1061 93.4417 26.7578 93.1592 27.332C92.8812 27.9062 92.4801 28.3506 91.9561 28.665C91.4365 28.9795 90.835 29.1367 90.1514 29.1367C89.1077 29.1367 88.2715 28.7904 87.6426 28.0977C87.0182 27.4004 86.7061 26.473 86.7061 25.3154V25.2334ZM88.3672 25.377C88.3672 26.138 88.5244 26.735 88.8389 27.168C89.1533 27.5964 89.5908 27.8105 90.1514 27.8105C90.7119 27.8105 91.1471 27.5918 91.457 27.1543C91.7715 26.7168 91.9287 26.0765 91.9287 25.2334C91.9287 24.486 91.7669 23.8936 91.4434 23.4561C91.1243 23.0186 90.6891 22.7998 90.1377 22.7998C89.5954 22.7998 89.1647 23.0163 88.8457 23.4492C88.5267 23.8776 88.3672 24.5202 88.3672 25.377ZM98.8604 23.1211C98.6416 23.0846 98.416 23.0664 98.1836 23.0664C97.4225 23.0664 96.9098 23.3581 96.6455 23.9414V29H94.9844V21.6035H96.5703L96.6113 22.4307C97.0124 21.7881 97.5684 21.4668 98.2793 21.4668C98.5163 21.4668 98.7122 21.4987 98.8672 21.5625L98.8604 23.1211ZM103.03 29.1367C101.978 29.1367 101.123 28.8063 100.467 28.1455C99.8151 27.4801 99.4893 26.596 99.4893 25.4932V25.2881C99.4893 24.5498 99.6305 23.8913 99.9131 23.3125C100.2 22.7292 100.601 22.2757 101.116 21.9521C101.631 21.6286 102.205 21.4668 102.839 21.4668C103.846 21.4668 104.623 21.7881 105.17 22.4307C105.721 23.0732 105.997 23.9824 105.997 25.1582V25.8281H101.164C101.214 26.4388 101.417 26.9219 101.772 27.2773C102.132 27.6328 102.584 27.8105 103.126 27.8105C103.887 27.8105 104.507 27.5029 104.985 26.8877L105.881 27.7422C105.585 28.1842 105.188 28.5283 104.691 28.7744C104.199 29.016 103.646 29.1367 103.03 29.1367ZM102.832 22.7998C102.376 22.7998 102.007 22.9593 101.725 23.2783C101.447 23.5973 101.269 24.0417 101.191 24.6113H104.356V24.4883C104.32 23.9323 104.172 23.513 103.912 23.2305C103.652 22.9434 103.292 22.7998 102.832 22.7998Z" fill="white"/>
<path d="M50.7773 16.3945H50.0312V15H45.9492V16.3984H45.1992L45.1953 14.3867H45.6602C45.9049 14.1107 46.099 13.7409 46.2422 13.2773C46.388 12.8112 46.4792 12.3008 46.5156 11.7461L46.6406 9.3125H50.043V14.3867H50.7852L50.7773 16.3945ZM46.5156 14.3867H49.2891V9.92969H47.3633L47.2812 11.6016C47.2474 12.2552 47.1602 12.8125 47.0195 13.2734C46.8815 13.7344 46.7135 14.1055 46.5156 14.3867ZM51.3711 12.8477C51.3711 12.4336 51.4518 12.0612 51.6133 11.7305C51.7773 11.3997 52.0039 11.1445 52.293 10.9648C52.5846 10.7852 52.9167 10.6953 53.2891 10.6953C53.8646 10.6953 54.3294 10.8945 54.6836 11.293C55.0404 11.6914 55.2188 12.2214 55.2188 12.8828V12.9336C55.2188 13.3451 55.1393 13.7148 54.9805 14.043C54.8242 14.3685 54.599 14.6224 54.3047 14.8047C54.013 14.987 53.6771 15.0781 53.2969 15.0781C52.724 15.0781 52.2591 14.8789 51.9023 14.4805C51.5482 14.082 51.3711 13.5547 51.3711 12.8984V12.8477ZM52.0977 12.9336C52.0977 13.4023 52.2057 13.7786 52.4219 14.0625C52.6406 14.3464 52.9323 14.4883 53.2969 14.4883C53.6641 14.4883 53.9557 14.3451 54.1719 14.0586C54.388 13.7695 54.4961 13.3659 54.4961 12.8477C54.4961 12.3841 54.3854 12.0091 54.1641 11.7227C53.9453 11.4336 53.6536 11.2891 53.2891 11.2891C52.9323 11.2891 52.6445 11.431 52.4258 11.7148C52.207 11.9987 52.0977 12.4049 52.0977 12.9336ZM57.8203 14.4883C58.0781 14.4883 58.3034 14.4102 58.4961 14.2539C58.6888 14.0977 58.7956 13.9023 58.8164 13.668H59.5C59.487 13.9102 59.4036 14.1406 59.25 14.3594C59.0964 14.5781 58.8906 14.7526 58.6328 14.8828C58.3776 15.013 58.1068 15.0781 57.8203 15.0781C57.2448 15.0781 56.7865 14.8867 56.4453 14.5039C56.1068 14.1185 55.9375 13.5924 55.9375 12.9258V12.8047C55.9375 12.3932 56.013 12.0273 56.1641 11.707C56.3151 11.3867 56.5312 11.138 56.8125 10.9609C57.0964 10.7839 57.431 10.6953 57.8164 10.6953C58.2904 10.6953 58.6836 10.8372 58.9961 11.1211C59.3112 11.4049 59.4792 11.7734 59.5 12.2266H58.8164C58.7956 11.9531 58.6914 11.7292 58.5039 11.5547C58.319 11.3776 58.0898 11.2891 57.8164 11.2891C57.4492 11.2891 57.1641 11.4219 56.9609 11.6875C56.7604 11.9505 56.6602 12.332 56.6602 12.832V12.9688C56.6602 13.4557 56.7604 13.8307 56.9609 14.0938C57.1615 14.3568 57.4479 14.4883 57.8203 14.4883ZM63.4531 11.3594H62.0352V15H61.3125V11.3594H59.9219V10.7734H63.4531V11.3594ZM65.5859 13.9414L66.5703 10.7734H67.3438L65.6445 15.6523C65.3815 16.3555 64.9635 16.707 64.3906 16.707L64.2539 16.6953L63.9844 16.6445V16.0586L64.1797 16.0742C64.4245 16.0742 64.6146 16.0247 64.75 15.9258C64.888 15.8268 65.0013 15.6458 65.0898 15.3828L65.25 14.9531L63.7422 10.7734H64.5312L65.5859 13.9414ZM71.4492 15H70.7266V11.3711H68.7812V15H68.0547V10.7734H71.4492V15ZM76.0625 15H75.3398V13.1953H73.3984V15H72.6719V10.7734H73.3984V12.6055H75.3398V10.7734H76.0625V15ZM77.0352 12.8477C77.0352 12.4336 77.1159 12.0612 77.2773 11.7305C77.4414 11.3997 77.668 11.1445 77.957 10.9648C78.2487 10.7852 78.5807 10.6953 78.9531 10.6953C79.5286 10.6953 79.9935 10.8945 80.3477 11.293C80.7044 11.6914 80.8828 12.2214 80.8828 12.8828V12.9336C80.8828 13.3451 80.8034 13.7148 80.6445 14.043C80.4883 14.3685 80.263 14.6224 79.9688 14.8047C79.6771 14.987 79.3411 15.0781 78.9609 15.0781C78.388 15.0781 77.9232 14.8789 77.5664 14.4805C77.2122 14.082 77.0352 13.5547 77.0352 12.8984V12.8477ZM77.7617 12.9336C77.7617 13.4023 77.8698 13.7786 78.0859 14.0625C78.3047 14.3464 78.5964 14.4883 78.9609 14.4883C79.3281 14.4883 79.6198 14.3451 79.8359 14.0586C80.0521 13.7695 80.1602 13.3659 80.1602 12.8477C80.1602 12.3841 80.0495 12.0091 79.8281 11.7227C79.6094 11.4336 79.3177 11.2891 78.9531 11.2891C78.5964 11.2891 78.3086 11.431 78.0898 11.7148C77.8711 11.9987 77.7617 12.4049 77.7617 12.9336ZM83.8398 15V10.7734H85.4883C86.0508 10.7734 86.4818 10.8724 86.7812 11.0703C87.0833 11.2656 87.2344 11.5534 87.2344 11.9336C87.2344 12.1289 87.1758 12.306 87.0586 12.4648C86.9414 12.6211 86.7682 12.7409 86.5391 12.8242C86.7943 12.8841 86.9987 13.0013 87.1523 13.1758C87.3086 13.3503 87.3867 13.5586 87.3867 13.8008C87.3867 14.1888 87.2435 14.4857 86.957 14.6914C86.6732 14.8971 86.2708 15 85.75 15H83.8398ZM84.5625 13.1445V14.418H85.7578C86.0599 14.418 86.2852 14.362 86.4336 14.25C86.5846 14.138 86.6602 13.9805 86.6602 13.7773C86.6602 13.3555 86.3503 13.1445 85.7305 13.1445H84.5625ZM84.5625 12.5664H85.4961C86.1732 12.5664 86.5117 12.3685 86.5117 11.9727C86.5117 11.5768 86.1914 11.3724 85.5508 11.3594H84.5625V12.5664Z" fill="white"/>
</svg>
