<svg width="30" height="30" viewBox="0 0 30 30" fill="none" xmlns="http://www.w3.org/2000/svg">
<path d="M29.0304 10.5639L20.037 9.19515L16.0167 0.660254C15.9069 0.426573 15.7262 0.237403 15.5031 0.122418C14.9434 -0.166901 14.2633 0.074198 13.9835 0.660254L9.96319 9.19515L0.969774 10.5639C0.721827 10.6009 0.495132 10.7233 0.321568 10.9088C0.11174 11.1347 -0.00388537 11.4385 9.96959e-05 11.7536C0.00408476 12.0686 0.127354 12.3691 0.342821 12.5891L6.84968 19.2323L5.3124 28.6129C5.27635 28.8311 5.29941 29.0555 5.37896 29.2607C5.45852 29.4659 5.59138 29.6436 5.76249 29.7738C5.9336 29.9039 6.13611 29.9812 6.34705 29.997C6.55799 30.0127 6.76893 29.9663 6.95594 29.8629L15.0001 25.4341L23.0442 29.8629C23.2638 29.9853 23.5188 30.0261 23.7633 29.9816C24.3796 29.8703 24.794 29.2583 24.6877 28.6129L23.1505 19.2323L29.6573 12.5891C29.8344 12.4073 29.9513 12.1699 29.9867 11.9103C30.0824 11.2612 29.6502 10.6603 29.0304 10.5639ZM20.4124 18.2976L21.6911 26.098L15.0001 22.4185L8.30903 26.1017L9.58773 18.3013L4.17538 12.7745L11.6563 11.6358L15.0001 4.54009L18.3438 11.6358L25.8248 12.7745L20.4124 18.2976Z" fill="black"/>
</svg>
