<svg width="37" height="30" viewBox="0 0 37 30" fill="none" xmlns="http://www.w3.org/2000/svg">
<path d="M18.495 10.4305C15.098 10.4305 12.3258 12.6129 12.3258 15.2872C12.3258 17.9615 15.098 20.1439 18.495 20.1439C21.892 20.1439 24.6642 17.9615 24.6642 15.2872C24.6642 12.6129 21.892 10.4305 18.495 10.4305ZM36.9979 15.2872C36.9979 13.2761 37.0211 11.2831 36.8776 9.27558C36.7341 6.94379 36.0584 4.87433 33.8925 3.16921C31.722 1.46044 29.0979 0.932147 26.1359 0.819201C23.5812 0.706255 21.0497 0.724472 18.4997 0.724472C15.945 0.724472 13.4134 0.706255 10.8634 0.819201C7.90144 0.932147 5.27272 1.46409 3.10679 3.16921C0.936241 4.87797 0.265175 6.94379 0.121706 9.27558C-0.0217637 11.2867 0.00137658 13.2797 0.00137658 15.2872C0.00137658 17.2947 -0.0217637 19.2913 0.121706 21.2989C0.265175 23.6306 0.940869 25.7001 3.10679 27.4052C5.27734 29.114 7.90144 29.6423 10.8634 29.7552C13.4181 29.8682 15.9496 29.85 18.4997 29.85C21.0543 29.85 23.5859 29.8682 26.1359 29.7552C29.0979 29.6423 31.7266 29.1103 33.8925 27.4052C36.0631 25.6965 36.7341 23.6306 36.8776 21.2989C37.0257 19.2913 36.9979 17.2984 36.9979 15.2872ZM18.495 22.7599C13.2422 22.7599 9.00292 19.4225 9.00292 15.2872C9.00292 11.1519 13.2422 7.81457 18.495 7.81457C23.7479 7.81457 27.9871 11.1519 27.9871 15.2872C27.9871 19.4225 23.7479 22.7599 18.495 22.7599ZM28.3759 9.25372C27.1495 9.25372 26.1591 8.47402 26.1591 7.50852C26.1591 6.54301 27.1495 5.76332 28.3759 5.76332C29.6023 5.76332 30.5927 6.54301 30.5927 7.50852C30.5931 7.73778 30.536 7.96485 30.4247 8.17672C30.3134 8.38858 30.1502 8.58109 29.9442 8.7432C29.7383 8.90532 29.4938 9.03386 29.2247 9.12146C28.9555 9.20906 28.6671 9.254 28.3759 9.25372Z" fill="#F8F8F8"/>
</svg>
