<svg width="278" height="50" viewBox="0 0 278 50" fill="none" xmlns="http://www.w3.org/2000/svg">
<path d="M78.6387 30H76.4341V21.1157H72.1641V30H69.9668V19.3359H78.6387V30ZM80.1035 25.9644C80.1035 25.1782 80.2549 24.4775 80.5576 23.8623C80.8604 23.2471 81.2949 22.771 81.8613 22.4341C82.4326 22.0972 83.0942 21.9287 83.8462 21.9287C84.9155 21.9287 85.7871 22.2559 86.4609 22.9102C87.1396 23.5645 87.5181 24.4531 87.5962 25.5762L87.6108 26.1182C87.6108 27.334 87.2715 28.3105 86.5928 29.0479C85.9141 29.7803 85.0034 30.1465 83.8608 30.1465C82.7183 30.1465 81.8052 29.7803 81.1216 29.0479C80.4429 28.3154 80.1035 27.3193 80.1035 26.0596V25.9644ZM82.2202 26.1182C82.2202 26.8701 82.3618 27.4463 82.645 27.8467C82.9282 28.2422 83.3335 28.4399 83.8608 28.4399C84.3735 28.4399 84.7739 28.2446 85.062 27.854C85.3501 27.4585 85.4941 26.8286 85.4941 25.9644C85.4941 25.2271 85.3501 24.6558 85.062 24.2505C84.7739 23.8452 84.3687 23.6426 83.8462 23.6426C83.3286 23.6426 82.9282 23.8452 82.645 24.2505C82.3618 24.6509 82.2202 25.2734 82.2202 26.1182ZM93.6899 22.0752H95.8066V30H93.6899V25.1074L91.0386 30H88.9146V22.0752H91.0386V26.9604L93.6899 22.0752ZM100.721 28.4399C101.112 28.4399 101.429 28.3325 101.673 28.1177C101.917 27.9028 102.044 27.6172 102.054 27.2607H104.039C104.034 27.7979 103.888 28.291 103.6 28.7402C103.312 29.1846 102.916 29.5312 102.413 29.7803C101.915 30.0244 101.363 30.1465 100.758 30.1465C99.625 30.1465 98.7314 29.7876 98.0771 29.0698C97.4229 28.3472 97.0957 27.3511 97.0957 26.0815V25.9424C97.0957 24.7217 97.4204 23.7476 98.0698 23.02C98.7192 22.2925 99.6104 21.9287 100.743 21.9287C101.734 21.9287 102.528 22.2119 103.124 22.7783C103.724 23.3398 104.029 24.0894 104.039 25.0269H102.054C102.044 24.6167 101.917 24.2847 101.673 24.0308C101.429 23.772 101.107 23.6426 100.707 23.6426C100.213 23.6426 99.8398 23.8232 99.5859 24.1846C99.3369 24.541 99.2124 25.1221 99.2124 25.9277V26.1475C99.2124 26.9629 99.3369 27.5488 99.5859 27.9053C99.835 28.2617 100.213 28.4399 100.721 28.4399ZM108.353 27.0776H107.503V30H105.387V22.0752H107.503V25.0562H108.258L109.986 22.0752H112.66L110.067 25.8472L112.901 30H110.082L108.353 27.0776ZM124.569 26.1108C124.569 27.3315 124.291 28.3105 123.734 29.0479C123.182 29.7803 122.435 30.1465 121.493 30.1465C120.692 30.1465 120.045 29.8682 119.552 29.3115V33.0469H117.435V22.0752H119.398L119.471 22.8516C119.984 22.2363 120.653 21.9287 121.478 21.9287C122.455 21.9287 123.214 22.29 123.756 23.0127C124.298 23.7354 124.569 24.7314 124.569 26.001V26.1108ZM122.452 25.957C122.452 25.2197 122.32 24.6509 122.057 24.2505C121.798 23.8501 121.419 23.6499 120.921 23.6499C120.257 23.6499 119.801 23.9038 119.552 24.4116V27.6562C119.811 28.1787 120.272 28.4399 120.936 28.4399C121.947 28.4399 122.452 27.6123 122.452 25.957ZM130.479 30C130.382 29.8096 130.311 29.5728 130.267 29.2896C129.754 29.8608 129.088 30.1465 128.268 30.1465C127.491 30.1465 126.847 29.9219 126.334 29.4727C125.826 29.0234 125.572 28.457 125.572 27.7734C125.572 26.9336 125.882 26.2891 126.502 25.8398C127.127 25.3906 128.028 25.1636 129.205 25.1587H130.179V24.7046C130.179 24.3384 130.084 24.0454 129.894 23.8257C129.708 23.606 129.413 23.4961 129.007 23.4961C128.651 23.4961 128.37 23.5815 128.165 23.7524C127.965 23.9233 127.865 24.1577 127.865 24.4556H125.748C125.748 23.9966 125.89 23.5718 126.173 23.1812C126.456 22.7905 126.856 22.4854 127.374 22.2656C127.892 22.041 128.473 21.9287 129.117 21.9287C130.094 21.9287 130.868 22.1753 131.439 22.6685C132.015 23.1567 132.303 23.8452 132.303 24.7339V28.1689C132.308 28.9209 132.413 29.4897 132.618 29.8755V30H130.479ZM128.729 28.5278C129.042 28.5278 129.33 28.4595 129.593 28.3228C129.857 28.1812 130.052 27.9932 130.179 27.7588V26.3965H129.388C128.329 26.3965 127.765 26.7627 127.696 27.4951L127.689 27.6196C127.689 27.8833 127.782 28.1006 127.967 28.2715C128.153 28.4424 128.407 28.5278 128.729 28.5278ZM137.862 22.5146C138.878 22.5146 139.688 22.8516 140.294 23.5254C140.899 24.1992 141.202 25.1147 141.202 26.272V26.3745C141.202 27.5171 140.865 28.4326 140.191 29.1211C139.518 29.8096 138.612 30.1538 137.474 30.1538C136.332 30.1538 135.421 29.7827 134.742 29.0405C134.068 28.2935 133.731 27.2803 133.731 26.001V25.6494C133.741 23.8672 134.042 22.4731 134.632 21.4673C135.228 20.4565 136.122 19.8193 137.313 19.5557C137.938 19.4189 138.341 19.2847 138.521 19.1528C138.702 19.0161 138.792 18.8281 138.792 18.5889H140.506C140.506 19.3555 140.299 19.9316 139.884 20.3174C139.474 20.7031 138.741 21.001 137.687 21.2109C137.062 21.3379 136.568 21.5845 136.207 21.9507C135.846 22.3169 135.602 22.832 135.475 23.4961C136.148 22.8418 136.944 22.5146 137.862 22.5146ZM137.459 24.2285C136.957 24.2285 136.561 24.397 136.273 24.7339C135.99 25.0708 135.848 25.6177 135.848 26.3745C135.848 27.0483 135.987 27.5635 136.266 27.9199C136.544 28.2715 136.947 28.4473 137.474 28.4473C137.987 28.4473 138.382 28.2739 138.661 27.9272C138.939 27.5806 139.081 27.0703 139.085 26.3965V26.2207C139.085 25.5713 138.941 25.0781 138.653 24.7412C138.37 24.3994 137.972 24.2285 137.459 24.2285ZM142.14 25.9644C142.14 25.1782 142.291 24.4775 142.594 23.8623C142.896 23.2471 143.331 22.771 143.897 22.4341C144.469 22.0972 145.13 21.9287 145.882 21.9287C146.952 21.9287 147.823 22.2559 148.497 22.9102C149.176 23.5645 149.554 24.4531 149.632 25.5762L149.647 26.1182C149.647 27.334 149.308 28.3105 148.629 29.0479C147.95 29.7803 147.04 30.1465 145.897 30.1465C144.754 30.1465 143.841 29.7803 143.158 29.0479C142.479 28.3154 142.14 27.3193 142.14 26.0596V25.9644ZM144.256 26.1182C144.256 26.8701 144.398 27.4463 144.681 27.8467C144.964 28.2422 145.37 28.4399 145.897 28.4399C146.41 28.4399 146.81 28.2446 147.098 27.854C147.386 27.4585 147.53 26.8286 147.53 25.9644C147.53 25.2271 147.386 24.6558 147.098 24.2505C146.81 23.8452 146.405 23.6426 145.882 23.6426C145.365 23.6426 144.964 23.8452 144.681 24.2505C144.398 24.6509 144.256 25.2734 144.256 26.1182ZM157.308 23.7744H154.767V30H152.643V23.7744H150.145V22.0752H157.308V23.7744ZM160.641 24.397H162.157C162.84 24.397 163.441 24.5117 163.958 24.7412C164.476 24.9707 164.872 25.3003 165.145 25.73C165.423 26.1548 165.562 26.6504 165.562 27.2168C165.562 28.0518 165.252 28.7256 164.632 29.2383C164.017 29.7461 163.177 30 162.113 30H158.517V22.0752H160.641V24.397ZM168.932 30H166.815V22.0752H168.932V30ZM160.641 26.0962V28.3081H162.142C162.562 28.3081 162.884 28.2104 163.109 28.0151C163.333 27.8198 163.446 27.5537 163.446 27.2168C163.446 26.875 163.336 26.604 163.116 26.4038C162.896 26.1987 162.572 26.0962 162.142 26.0962H160.641ZM174.645 28.2935C175.123 27.7856 175.448 27.2827 175.619 26.7847C175.79 26.2866 175.885 25.5811 175.904 24.668L175.963 22.0752H181.793V28.2935H182.936V32.3804H180.819V30H176.124V32.3804H173.963V28.2935H174.645ZM177.142 28.2935H179.684V23.8257H178.036L178.021 24.7778C177.977 26.2329 177.684 27.4048 177.142 28.2935ZM190.904 22.0752V30H188.788V23.7891H186.92L186.788 26.2354C186.705 27.5391 186.449 28.4888 186.019 29.0845C185.589 29.6802 184.95 29.9854 184.1 30H183.382L183.36 28.2788L183.624 28.2568C184.005 28.2275 184.283 28.0029 184.459 27.583C184.635 27.1631 184.745 26.4478 184.789 25.437L184.935 22.0752H190.904ZM199.144 22.0752V30H197.035V27.2607H195.694L194.171 30H192.025L193.753 26.9019C193.28 26.6821 192.914 26.3843 192.655 26.0083C192.401 25.6323 192.274 25.2051 192.274 24.7266C192.274 23.96 192.569 23.3325 193.16 22.8442C193.756 22.3511 194.552 22.0947 195.548 22.0752H199.144ZM195.584 25.7812H197.035V23.7744H195.658C195.282 23.7744 194.977 23.8745 194.742 24.0747C194.508 24.27 194.391 24.5093 194.391 24.7925C194.391 25.0757 194.503 25.3101 194.728 25.4956C194.952 25.6812 195.238 25.7764 195.584 25.7812ZM207.962 28.4399C208.353 28.4399 208.67 28.3325 208.915 28.1177C209.159 27.9028 209.286 27.6172 209.295 27.2607H211.28C211.275 27.7979 211.129 28.291 210.841 28.7402C210.553 29.1846 210.157 29.5312 209.654 29.7803C209.156 30.0244 208.604 30.1465 207.999 30.1465C206.866 30.1465 205.973 29.7876 205.318 29.0698C204.664 28.3472 204.337 27.3511 204.337 26.0815V25.9424C204.337 24.7217 204.662 23.7476 205.311 23.02C205.96 22.2925 206.852 21.9287 207.984 21.9287C208.976 21.9287 209.769 22.2119 210.365 22.7783C210.965 23.3398 211.271 24.0894 211.28 25.0269H209.295C209.286 24.6167 209.159 24.2847 208.915 24.0308C208.67 23.772 208.348 23.6426 207.948 23.6426C207.455 23.6426 207.081 23.8232 206.827 24.1846C206.578 24.541 206.454 25.1221 206.454 25.9277V26.1475C206.454 26.9629 206.578 27.5488 206.827 27.9053C207.076 28.2617 207.455 28.4399 207.962 28.4399ZM219.066 23.7744H216.524V30H214.4V23.7744H211.903V22.0752H219.066V23.7744ZM223.182 27.0044L224.647 22.0752H226.917L223.731 31.2305L223.556 31.6479C223.082 32.6831 222.301 33.2007 221.212 33.2007C220.904 33.2007 220.592 33.1543 220.274 33.0615V31.4575L220.597 31.4648C220.997 31.4648 221.295 31.4038 221.49 31.2817C221.69 31.1597 221.847 30.957 221.959 30.6738L222.208 30.022L219.432 22.0752H221.71L223.182 27.0044ZM227.452 28.2935C227.931 27.7856 228.255 27.2827 228.426 26.7847C228.597 26.2866 228.692 25.5811 228.712 24.668L228.771 22.0752H234.601V28.2935H235.743V32.3804H233.626V30H228.932V32.3804H226.771V28.2935H227.452ZM229.95 28.2935H232.491V23.8257H230.843L230.829 24.7778C230.785 26.2329 230.492 27.4048 229.95 28.2935ZM240.467 30.1465C239.305 30.1465 238.358 29.79 237.625 29.0771C236.898 28.3643 236.534 27.4146 236.534 26.228V26.0229C236.534 25.2271 236.688 24.5166 236.996 23.8916C237.303 23.2617 237.738 22.7783 238.299 22.4414C238.866 22.0996 239.51 21.9287 240.233 21.9287C241.317 21.9287 242.169 22.2705 242.789 22.9541C243.414 23.6377 243.727 24.6069 243.727 25.8618V26.7261H238.68C238.749 27.2437 238.954 27.6587 239.295 27.9712C239.642 28.2837 240.079 28.4399 240.606 28.4399C241.422 28.4399 242.059 28.1445 242.518 27.5537L243.558 28.7183C243.241 29.1675 242.811 29.519 242.269 29.7729C241.727 30.022 241.126 30.1465 240.467 30.1465ZM240.226 23.6426C239.806 23.6426 239.464 23.7842 239.2 24.0674C238.941 24.3506 238.775 24.7559 238.702 25.2832H241.646V25.1147C241.637 24.646 241.51 24.2847 241.266 24.0308C241.021 23.772 240.675 23.6426 240.226 23.6426ZM251.805 30H249.681V26.9531H247.052V30H244.935V22.0752H247.052V25.2539H249.681V22.0752H251.805V30ZM260.023 23.7744H257.481V30H255.357V23.7744H252.86V22.0752H260.023V23.7744ZM260.543 25.9644C260.543 25.1782 260.694 24.4775 260.997 23.8623C261.3 23.2471 261.734 22.771 262.301 22.4341C262.872 22.0972 263.534 21.9287 264.286 21.9287C265.355 21.9287 266.227 22.2559 266.9 22.9102C267.579 23.5645 267.958 24.4531 268.036 25.5762L268.05 26.1182C268.05 27.334 267.711 28.3105 267.032 29.0479C266.354 29.7803 265.443 30.1465 264.3 30.1465C263.158 30.1465 262.245 29.7803 261.561 29.0479C260.882 28.3154 260.543 27.3193 260.543 26.0596V25.9644ZM262.66 26.1182C262.66 26.8701 262.801 27.4463 263.084 27.8467C263.368 28.2422 263.773 28.4399 264.3 28.4399C264.813 28.4399 265.213 28.2446 265.501 27.854C265.79 27.4585 265.934 26.8286 265.934 25.9644C265.934 25.2271 265.79 24.6558 265.501 24.2505C265.213 23.8452 264.808 23.6426 264.286 23.6426C263.768 23.6426 263.368 23.8452 263.084 24.2505C262.801 24.6509 262.66 25.2734 262.66 26.1182ZM269.493 30V22.0752H272.804C273.883 22.0752 274.71 22.2656 275.287 22.6465C275.863 23.0273 276.151 23.5742 276.151 24.2871C276.151 24.6533 276.029 24.9829 275.785 25.2759C275.545 25.564 275.194 25.7861 274.73 25.9424C275.296 26.0498 275.741 26.2622 276.063 26.5796C276.39 26.8921 276.554 27.2778 276.554 27.7368C276.554 28.4741 276.275 29.0356 275.719 29.4214C275.167 29.8071 274.364 30 273.309 30H269.493ZM271.61 26.7114V28.3081H273.316C274.063 28.3081 274.437 28.0469 274.437 27.5244C274.437 26.9922 274.081 26.7212 273.368 26.7114H271.61ZM271.61 25.2905H272.921C273.663 25.2808 274.034 25.0415 274.034 24.5728C274.034 24.2847 273.932 24.0796 273.727 23.9575C273.526 23.8354 273.219 23.7744 272.804 23.7744H271.61V25.2905Z" fill="#163E73"/>
<path fill-rule="evenodd" clip-rule="evenodd" d="M17.4103 50C18.7004 50.0048 19.9759 49.164 20.7361 48.0974L19.8919 46.1228C19.4862 46.9155 18.6785 47.7948 17.5272 47.8764C15.7181 48.0062 14.2781 46.1324 14.2781 43.8407C14.2781 39.901 18.0901 38.378 19.8224 41.4337L20.6557 39.4782C19.9101 38.4645 18.737 37.6814 17.4651 37.6862C14.8008 37.7006 12.6664 40.3382 12.6664 43.8407C12.6664 47.3479 14.7825 49.9904 17.4103 50Z" fill="#163E73"/>
<path fill-rule="evenodd" clip-rule="evenodd" d="M28.1152 49.6541H29.9828L27.2417 43.3603L29.7233 37.6959H27.8411L25.6263 42.7838L24.0036 42.7694L23.9926 37.6959H22.2237L22.2347 49.6541H24.0036V44.8304L26.0137 44.8256L28.1152 49.6541Z" fill="black"/>
<path fill-rule="evenodd" clip-rule="evenodd" d="M41.2065 43.7446C41.2065 40.1412 39.4047 37.9888 36.2068 37.7534H34.5804C31.3824 37.9888 29.566 40.122 29.566 43.7446C29.566 47.3431 31.3824 49.4763 34.5804 49.7117H36.2068C39.4047 49.5147 41.2065 47.3431 41.2065 43.7446ZM36.2068 47.7179V39.7665C38.3485 39.9827 39.5144 41.3135 39.5144 43.7205C39.5144 46.1324 38.3741 47.4824 36.2068 47.7179ZM31.2874 43.7446C31.2874 41.3135 32.3985 40.0019 34.5804 39.7665V47.7179C32.4789 47.4632 31.2874 46.1516 31.2874 43.7446ZM48.1982 37.7534C47.3064 39.9442 46.5426 41.9237 45.5448 44.1722L42.9024 37.7534H41.0969L44.6201 46.3198C44.2327 47.1029 43.7905 47.8716 43.0047 47.8716C42.8402 47.8716 42.6685 47.8428 42.4857 47.7899L43.2861 49.6973C44.3314 49.7117 45.2487 49.1784 46.0455 47.2566L50 37.7534H48.1982Z" fill="black"/>
<path fill-rule="evenodd" clip-rule="evenodd" d="M0.342514 24.2625C2.48056 27.6737 5.42265 29.9077 8.75581 30.4891C8.64982 30.6332 8.56576 30.8446 8.47805 30.9743C5.92701 31.2626 3.62085 30.5515 1.43164 28.7883C0.9821 27.3566 0.580074 25.8288 0.342514 24.2625Z" fill="#163E73"/>
<path fill-rule="evenodd" clip-rule="evenodd" d="M9.72071 29.1148C9.58183 29.283 9.35524 29.5809 9.24925 29.749C5.34229 28.6728 2.12975 25.5308 0.0501777 21.0627C-0.103323 18.2473 0.094035 15.4655 0.660525 12.7462C1.4463 19.9192 4.74656 25.9391 9.72071 29.1148Z" fill="#163E73"/>
<path fill-rule="evenodd" clip-rule="evenodd" d="M11.3032 27.4863C10.9852 27.7553 10.5064 28.1733 10.1885 28.5481C4.96946 24.2337 2.08584 17.248 1.66554 9.23897C3.29192 5.0639 4.70997 2.84904 7.35237 0C3.80358 10.3632 6.24863 21.1877 11.3032 27.4863Z" fill="#163E73"/>
<path fill-rule="evenodd" clip-rule="evenodd" d="M15.3417 3.737C19.3364 7.09531 24.9099 16.5985 22.3077 25.1553C20.2282 31.9824 15.9923 33.7024 14.534 34.9179C13.0721 36.1287 10.2141 39.5398 11.274 44.8103C8.21491 43.0903 7.1806 38.9585 8.18567 35.211C10.4151 26.8753 15.4441 28.1004 16.8731 16.9396C17.5163 11.9094 16.1531 5.79811 15.3417 3.737ZM2.07854 29.412C3.98633 30.7765 5.99646 31.1753 8.10526 30.4642C8.04313 30.5939 7.90425 30.9446 7.83846 31.0696C6.35828 32.0497 4.805 32.0785 3.16766 31.7182C2.7364 30.9158 2.48787 30.2816 2.07854 29.412ZM3.81456 32.9241C5.0316 33.1883 6.39117 32.7799 7.48395 31.968L7.30121 32.6022C6.61777 33.6303 5.50306 34.0099 4.58206 34.0675C4.24582 33.7168 4.05577 33.2892 3.81456 32.9241Z" fill="#163E73"/>
</svg>
