<svg width="256" height="256" viewBox="0 0 256 256" fill="none" xmlns="http://www.w3.org/2000/svg">
<path d="M128 256C198.692 256 256 198.692 256 128C256 57.3075 198.692 0 128 0C57.3075 0 0 57.3075 0 128C0 198.692 57.3075 256 128 256Z" fill="#1649B6"/>
<path d="M159.581 131.861C142.601 131.861 128.836 118.096 128.836 101.116C128.836 84.136 142.601 70.372 159.581 70.372C176.561 70.372 190.326 84.137 190.326 101.116C190.326 118.096 176.561 131.861 159.581 131.861ZM190.117 173.481C188.874 174.349 186.76 175.038 183.432 175.084C159.869 143.704 145.147 140.516 130.046 154.509C129.43 155.086 128.621 155.411 127.777 155.422C126.933 155.432 126.116 155.126 125.486 154.565C110.66 141.407 93.654 143.623 72.576 174.527C70.199 175.744 68.411 175.173 67.138 174.109V100.41C67.138 95.885 68.275 91.387 70.7 87.566C80.496 72.137 105.333 67.19 117.124 88.985C106.667 137.298 159.163 159.885 190.117 132.069V173.48V173.481ZM125.28 74.137C108.13 48.62 60.654 54.895 52.498 96.306V176.786C52.498 177.759 52.836 178.713 53.461 179.458C75.664 205.961 97.867 206.201 122.56 180.386C124.98 177.855 129.032 178.064 131.22 180.798C147.255 200.835 180.995 212.766 202.07 177.065C203.004 175.487 203.499 173.688 203.502 171.855V96.235C203.502 95.172 203.379 94.104 203.095 93.078C192.697 55.54 149.422 48.758 125.281 74.137H125.28ZM102.44 104.023C102.44 109.44 98.048 113.831 92.631 113.831C87.214 113.831 82.823 109.44 82.823 104.023C82.823 98.606 87.214 94.215 92.631 94.215C98.048 94.215 102.44 98.606 102.44 104.023Z" fill="white"/>
</svg>
