<svg width="37" height="30" viewBox="0 0 37 30" fill="none" xmlns="http://www.w3.org/2000/svg">
<path d="M18.5 0.723389C8.27965 0.723389 0 7.24235 0 15.2872C0 23.3321 8.28084 29.851 18.5 29.851C28.7204 29.851 37 23.3321 37 15.2872C37 7.24235 28.7192 0.723389 18.5 0.723389ZM27.5865 10.701L24.5501 21.965C24.3257 22.7636 23.7218 22.9572 22.8791 22.5813L18.2541 19.8978L16.0234 21.5891C15.7775 21.7827 15.5686 21.9471 15.0912 21.9471L15.4195 18.2413L23.9903 12.1452C24.3639 11.8868 23.908 11.7402 23.415 11.9986L12.8223 17.2482L8.25697 16.1263C7.26513 15.8801 7.24245 15.3455 8.46584 14.9696L26.3022 9.55471C27.1306 9.31981 27.8538 9.7135 27.5853 10.7001L27.5865 10.701Z" fill="#F8F8F8"/>
</svg>
