<svg width="37" height="30" viewBox="0 0 37 30" fill="none" xmlns="http://www.w3.org/2000/svg">
<path d="M18.5 0.723389C8.28371 0.723389 0 7.2446 0 15.2872C0 23.3298 8.28371 29.851 18.5 29.851C28.7163 29.851 37 23.3298 37 15.2872C37 7.2446 28.7163 0.723389 18.5 0.723389ZM27.3907 11.7015C27.4031 11.8543 27.4031 12.0136 27.4031 12.1696C27.4031 16.9419 22.7864 22.4391 14.3499 22.4391C11.7483 22.4391 9.33672 21.8442 7.30502 20.8202C7.67667 20.8527 8.03181 20.8657 8.41172 20.8657C10.559 20.8657 12.5329 20.2935 14.1062 19.3248C12.0911 19.2923 10.398 18.252 9.81987 16.8216C10.526 16.9029 11.1619 16.9029 11.8887 16.7566C10.8511 16.5906 9.91846 16.147 9.24924 15.5011C8.58003 14.8551 8.21551 14.0467 8.21763 13.2132V13.1677C8.82467 13.4375 9.53906 13.6033 10.2865 13.626C9.65817 13.2964 9.14287 12.8498 8.78631 12.3258C8.42974 11.8018 8.24292 11.2167 8.24241 10.6222C8.24241 9.94932 8.4654 9.3349 8.86596 8.80176C10.0177 9.9179 11.4548 10.8308 13.0841 11.481C14.7133 12.1313 16.4981 12.5043 18.3224 12.576C17.6741 10.1216 20.0031 8.13534 22.8029 8.13534C24.1243 8.13534 25.3136 8.57095 26.1519 9.27314C27.1884 9.12035 28.1795 8.81477 29.0632 8.40516C28.7204 9.24063 28.0019 9.94606 27.048 10.3914C27.973 10.3134 28.865 10.1119 29.6908 9.82903C29.0673 10.5507 28.2868 11.1911 27.3907 11.7015Z" fill="#F8F8F8"/>
</svg>
