<svg width="36" height="29" viewBox="0 0 36 29" fill="none" xmlns="http://www.w3.org/2000/svg">
<path d="M17.76 0.723389C7.9513 0.723389 0 6.98292 0 14.7047C0 22.4264 7.9513 28.6859 17.76 28.6859C27.5687 28.6859 35.52 22.4264 35.52 14.7047C35.52 6.98292 27.5687 0.723389 17.76 0.723389ZM24.5902 16.4975C24.5902 16.4975 26.1609 17.7179 26.5475 18.2845C26.5586 18.2961 26.5642 18.3078 26.5679 18.3136C26.7251 18.5218 26.7621 18.6835 26.6844 18.8044C26.5549 19.0054 26.1109 19.1044 25.9592 19.1131H23.1842C22.9918 19.1131 22.5885 19.0738 22.1001 18.8088C21.7246 18.6019 21.3546 18.2626 20.9938 17.932C20.4555 17.4398 19.9893 17.0145 19.5194 17.0145C19.4597 17.0144 19.4003 17.0218 19.3436 17.0363C18.9884 17.1266 18.5333 17.5257 18.5333 18.5888C18.5333 18.9209 18.2003 19.1117 17.9654 19.1117H16.6944C16.2615 19.1117 14.0064 18.9923 12.0084 17.3334C9.56265 15.3018 7.36115 11.2268 7.34265 11.189C7.2039 10.9254 7.49065 10.7841 7.8033 10.7841H10.6061C10.9798 10.7841 11.1019 10.9632 11.187 11.122C11.2869 11.3069 11.6532 12.0424 12.2544 12.8696C13.2294 14.2182 13.8269 14.7658 14.3061 14.7658C14.3959 14.765 14.4841 14.747 14.5632 14.7134C15.1885 14.4396 15.072 12.6847 15.0442 12.3206C15.0442 12.2521 15.0424 11.5356 14.7223 11.1919C14.4929 10.9428 14.1026 10.8482 13.8658 10.8132C13.9616 10.7091 14.0879 10.6247 14.2339 10.5671C14.6631 10.3981 15.4364 10.3734 16.2042 10.3734H16.6315C17.464 10.3821 17.6786 10.4244 17.9802 10.4841C18.5907 10.5991 18.6036 10.9093 18.55 11.971C18.5333 12.2725 18.5167 12.6133 18.5167 13.0153C18.5167 13.1026 18.5111 13.1959 18.5111 13.2949C18.4926 13.8352 18.4704 14.4483 18.9551 14.7003C19.0183 14.7315 19.0914 14.7482 19.166 14.7484C19.3344 14.7484 19.8413 14.7484 21.214 12.8944C21.6373 12.2976 22.0052 11.6775 22.3147 11.0389C22.3425 11.0011 22.4239 10.8846 22.5201 10.8394C22.591 10.8109 22.6698 10.7964 22.7495 10.7972H26.0443C26.4032 10.7972 26.6493 10.8394 26.6955 10.9487C26.7769 11.122 26.6807 11.6506 25.1767 13.2541L24.5051 13.9517C23.1417 15.3586 23.1417 15.4299 24.5902 16.4975Z" fill="#F8F8F8"/>
</svg>
